<svg width="24" height="24" viewBox="0 0 24 24" fill="none" xmlns="http://www.w3.org/2000/svg">
<g clip-path="url(#clip0)">
<path d="M5.28247 6.68096L17.3143 18.7115C17.4357 18.8389 17.5818 18.9242 17.7524 18.9676C17.923 19.011 18.0936 19.011 18.2642 18.9676C18.4348 18.9242 18.5837 18.8389 18.7109 18.7115C18.8382 18.5842 18.922 18.4352 18.9625 18.2645C19.003 18.0938 19.003 17.9245 18.9625 17.7567C18.922 17.5889 18.8411 17.4414 18.7196 17.314L6.68778 5.28347C6.56633 5.15616 6.42031 5.07225 6.2497 5.03175C6.0791 4.99124 5.9085 4.99124 5.73789 5.03175C5.56729 5.07225 5.41837 5.15616 5.29114 5.28347C5.16391 5.41078 5.08006 5.55979 5.03958 5.7305C4.99909 5.9012 4.99909 6.07191 5.03958 6.24262C5.08006 6.41333 5.16102 6.55944 5.28247 6.68096ZM5.28247 17.3141C5.16102 17.4414 5.07861 17.589 5.03524 17.7568C4.99187 17.9246 4.99042 18.0938 5.0309 18.2646C5.07138 18.4353 5.15813 18.5843 5.29114 18.7116C5.41837 18.8389 5.56729 18.9228 5.73789 18.9633C5.9085 19.0038 6.0791 19.0038 6.2497 18.9633C6.42031 18.9228 6.56633 18.8418 6.68778 18.7203L18.7196 6.68099C18.8411 6.55369 18.9235 6.40613 18.9668 6.23831C19.0102 6.0705 19.0102 5.90123 18.9668 5.73052C18.9235 5.55982 18.8382 5.4137 18.7109 5.29218C18.5779 5.15909 18.4276 5.07229 18.2598 5.03178C18.0921 4.99127 17.923 4.98983 17.7524 5.02744C17.5818 5.06505 17.4357 5.15041 17.3143 5.2835L5.28247 17.3141Z" fill="#788094"/>
</g>
<defs>
<clipPath id="clip0">
<rect width="14" height="14" fill="white" transform="translate(5 5)"/>
</clipPath>
</defs>
</svg>
